<mxfile host="app.diagrams.net" modified="2021-01-05T08:27:31.499Z" agent="5.0 (Macintosh; Intel Mac OS X 10_15_6) AppleWebKit/537.36 (KHTML, like Gecko) Chrome/87.0.4280.88 Safari/537.36" etag="l38TJpguC-F1KqU3-JDC" version="14.1.4" type="github">
  <diagram id="C5RBs43oDa-KdzZeNtuy" name="Page-1">
    <mxGraphModel dx="1854" dy="1191" grid="1" gridSize="10" guides="1" tooltips="1" connect="1" arrows="1" fold="1" page="1" pageScale="1" pageWidth="827" pageHeight="1169" math="0" shadow="0">
      <root>
        <mxCell id="WIyWlLk6GJQsqaUBKTNV-0" />
        <mxCell id="WIyWlLk6GJQsqaUBKTNV-1" parent="WIyWlLk6GJQsqaUBKTNV-0" />
        <mxCell id="WIyWlLk6GJQsqaUBKTNV-2" value="" style="rounded=0;html=1;jettySize=auto;orthogonalLoop=1;fontSize=11;endArrow=block;endFill=0;endSize=8;strokeWidth=1;shadow=0;labelBackgroundColor=none;edgeStyle=orthogonalEdgeStyle;entryX=0.48;entryY=-0.021;entryDx=0;entryDy=0;entryPerimeter=0;" parent="WIyWlLk6GJQsqaUBKTNV-1" source="WIyWlLk6GJQsqaUBKTNV-3" target="gfvuBEWHtsXMwhggWegf-15" edge="1">
          <mxGeometry relative="1" as="geometry">
            <mxPoint x="1020" y="260" as="targetPoint" />
          </mxGeometry>
        </mxCell>
        <mxCell id="gfvuBEWHtsXMwhggWegf-12" value="socket listen" style="edgeLabel;html=1;align=center;verticalAlign=middle;resizable=0;points=[];" vertex="1" connectable="0" parent="WIyWlLk6GJQsqaUBKTNV-2">
          <mxGeometry x="-0.44" y="-1" relative="1" as="geometry">
            <mxPoint as="offset" />
          </mxGeometry>
        </mxCell>
        <mxCell id="WIyWlLk6GJQsqaUBKTNV-3" value="client" style="rounded=1;whiteSpace=wrap;html=1;fontSize=12;glass=0;strokeWidth=1;shadow=0;" parent="WIyWlLk6GJQsqaUBKTNV-1" vertex="1">
          <mxGeometry x="960" y="170" width="120" height="40" as="geometry" />
        </mxCell>
        <mxCell id="gfvuBEWHtsXMwhggWegf-8" value="通过serverPluginHtml将client 注入index" style="shape=note2;boundedLbl=1;whiteSpace=wrap;html=1;size=25;verticalAlign=top;align=center;" vertex="1" parent="WIyWlLk6GJQsqaUBKTNV-1">
          <mxGeometry x="1130" y="150" width="120" height="60" as="geometry" />
        </mxCell>
        <mxCell id="gfvuBEWHtsXMwhggWegf-11" value="" style="endArrow=none;dashed=1;html=1;dashPattern=1 3;strokeWidth=2;" edge="1" parent="WIyWlLk6GJQsqaUBKTNV-1" target="gfvuBEWHtsXMwhggWegf-8">
          <mxGeometry width="50" height="50" relative="1" as="geometry">
            <mxPoint x="1080" y="190" as="sourcePoint" />
            <mxPoint x="1130" y="140" as="targetPoint" />
          </mxGeometry>
        </mxCell>
        <mxCell id="gfvuBEWHtsXMwhggWegf-16" style="edgeStyle=orthogonalEdgeStyle;rounded=0;jumpSize=15;orthogonalLoop=1;jettySize=auto;html=1;entryX=0;entryY=0;entryDx=85;entryDy=0;entryPerimeter=0;" edge="1" parent="WIyWlLk6GJQsqaUBKTNV-1" source="gfvuBEWHtsXMwhggWegf-15" target="gfvuBEWHtsXMwhggWegf-90">
          <mxGeometry relative="1" as="geometry">
            <mxPoint x="1020" y="380" as="targetPoint" />
          </mxGeometry>
        </mxCell>
        <mxCell id="gfvuBEWHtsXMwhggWegf-98" style="edgeStyle=orthogonalEdgeStyle;rounded=0;jumpSize=15;orthogonalLoop=1;jettySize=auto;html=1;" edge="1" parent="WIyWlLk6GJQsqaUBKTNV-1" source="gfvuBEWHtsXMwhggWegf-15" target="gfvuBEWHtsXMwhggWegf-97">
          <mxGeometry relative="1" as="geometry" />
        </mxCell>
        <mxCell id="gfvuBEWHtsXMwhggWegf-99" style="edgeStyle=orthogonalEdgeStyle;rounded=0;jumpSize=15;orthogonalLoop=1;jettySize=auto;html=1;" edge="1" parent="WIyWlLk6GJQsqaUBKTNV-1" source="gfvuBEWHtsXMwhggWegf-15" target="gfvuBEWHtsXMwhggWegf-91">
          <mxGeometry relative="1" as="geometry" />
        </mxCell>
        <mxCell id="gfvuBEWHtsXMwhggWegf-100" style="edgeStyle=orthogonalEdgeStyle;rounded=0;jumpSize=15;orthogonalLoop=1;jettySize=auto;html=1;" edge="1" parent="WIyWlLk6GJQsqaUBKTNV-1" source="gfvuBEWHtsXMwhggWegf-15" target="gfvuBEWHtsXMwhggWegf-92">
          <mxGeometry relative="1" as="geometry" />
        </mxCell>
        <mxCell id="gfvuBEWHtsXMwhggWegf-108" style="edgeStyle=orthogonalEdgeStyle;rounded=0;jumpSize=15;orthogonalLoop=1;jettySize=auto;html=1;entryX=0;entryY=0;entryDx=85;entryDy=0;entryPerimeter=0;" edge="1" parent="WIyWlLk6GJQsqaUBKTNV-1" source="gfvuBEWHtsXMwhggWegf-15" target="gfvuBEWHtsXMwhggWegf-107">
          <mxGeometry relative="1" as="geometry" />
        </mxCell>
        <mxCell id="gfvuBEWHtsXMwhggWegf-15" value="" style="aspect=fixed;html=1;points=[];align=center;image;fontSize=12;image=img/lib/mscae/Event_Hub_Clusters.svg;" vertex="1" parent="WIyWlLk6GJQsqaUBKTNV-1">
          <mxGeometry x="995" y="270" width="50" height="48" as="geometry" />
        </mxCell>
        <mxCell id="gfvuBEWHtsXMwhggWegf-18" value="&lt;ul style=&quot;font-size: 11px&quot;&gt;&lt;li style=&quot;font-size: 11px&quot;&gt;&lt;code style=&quot;font-family: &amp;#34;menlo&amp;#34; , &amp;#34;monaco&amp;#34; , &amp;#34;consolas&amp;#34; , &amp;#34;courier new&amp;#34; , monospace ; word-break: break-word ; border-radius: 2px ; overflow-x: auto ; background-color: rgb(255 , 245 , 245) ; color: rgb(255 , 80 , 44) ; padding: 0.065em 0.4em ; font-size: 11px&quot;&gt;&amp;nbsp;vue-reload&lt;/code&gt;&lt;span style=&quot;color: rgb(51 , 51 , 51) ; background-color: rgb(255 , 255 , 255) ; font-size: 11px&quot;&gt;: Vue 组件重新加载&lt;br style=&quot;font-size: 11px&quot;&gt;&lt;/span&gt;&lt;/li&gt;&lt;li style=&quot;list-style: inherit ; margin-bottom: 0px ; font-size: 11px&quot;&gt;&lt;code style=&quot;font-family: &amp;#34;menlo&amp;#34; , &amp;#34;monaco&amp;#34; , &amp;#34;consolas&amp;#34; , &amp;#34;courier new&amp;#34; , monospace ; word-break: break-word ; border-radius: 2px ; overflow-x: auto ; background-color: rgb(255 , 245 , 245) ; color: rgb(255 , 80 , 44) ; padding: 0.065em 0.4em ; font-size: 11px&quot;&gt;vue-rerender&lt;/code&gt;: Vue 组件重新渲染（当你修改了 template 里的内容时）&lt;/li&gt;&lt;li style=&quot;list-style: inherit ; margin-bottom: 0px ; font-size: 11px&quot;&gt;&lt;code style=&quot;font-family: &amp;#34;menlo&amp;#34; , &amp;#34;monaco&amp;#34; , &amp;#34;consolas&amp;#34; , &amp;#34;courier new&amp;#34; , monospace ; word-break: break-word ; border-radius: 2px ; overflow-x: auto ; background-color: rgb(255 , 245 , 245) ; color: rgb(255 , 80 , 44) ; padding: 0.065em 0.4em ; font-size: 11px&quot;&gt;style-update&lt;/code&gt;: 样式更新&lt;/li&gt;&lt;li style=&quot;list-style: inherit ; margin-bottom: 0px ; font-size: 11px&quot;&gt;&lt;code style=&quot;font-family: &amp;#34;menlo&amp;#34; , &amp;#34;monaco&amp;#34; , &amp;#34;consolas&amp;#34; , &amp;#34;courier new&amp;#34; , monospace ; word-break: break-word ; border-radius: 2px ; overflow-x: auto ; background-color: rgb(255 , 245 , 245) ; color: rgb(255 , 80 , 44) ; padding: 0.065em 0.4em ; font-size: 11px&quot;&gt;style-remove&lt;/code&gt;: 样式移除&lt;/li&gt;&lt;li style=&quot;list-style: inherit ; margin-bottom: 0px ; font-size: 11px&quot;&gt;&lt;code style=&quot;font-family: &amp;#34;menlo&amp;#34; , &amp;#34;monaco&amp;#34; , &amp;#34;consolas&amp;#34; , &amp;#34;courier new&amp;#34; , monospace ; word-break: break-word ; border-radius: 2px ; overflow-x: auto ; background-color: rgb(255 , 245 , 245) ; color: rgb(255 , 80 , 44) ; padding: 0.065em 0.4em ; font-size: 11px&quot;&gt;js-update&lt;/code&gt;: js 文件更新&lt;/li&gt;&lt;li style=&quot;list-style: inherit ; margin-bottom: 0px ; font-size: 11px&quot;&gt;&lt;code style=&quot;font-family: &amp;#34;menlo&amp;#34; , &amp;#34;monaco&amp;#34; , &amp;#34;consolas&amp;#34; , &amp;#34;courier new&amp;#34; , monospace ; word-break: break-word ; border-radius: 2px ; overflow-x: auto ; background-color: rgb(255 , 245 , 245) ; color: rgb(255 , 80 , 44) ; padding: 0.065em 0.4em ; font-size: 11px&quot;&gt;full-reload&lt;/code&gt;: fallback 机制，网页重刷新&lt;/li&gt;&lt;/ul&gt;" style="shape=note2;boundedLbl=1;whiteSpace=wrap;html=1;size=25;verticalAlign=top;align=left;" vertex="1" parent="WIyWlLk6GJQsqaUBKTNV-1">
          <mxGeometry x="1360" y="110" width="260" height="160" as="geometry" />
        </mxCell>
        <mxCell id="gfvuBEWHtsXMwhggWegf-19" value="" style="endArrow=none;dashed=1;html=1;dashPattern=1 3;strokeWidth=2;entryX=-0.019;entryY=0.663;entryDx=0;entryDy=0;entryPerimeter=0;" edge="1" parent="WIyWlLk6GJQsqaUBKTNV-1" source="gfvuBEWHtsXMwhggWegf-15" target="gfvuBEWHtsXMwhggWegf-18">
          <mxGeometry width="50" height="50" relative="1" as="geometry">
            <mxPoint x="1230" y="460" as="sourcePoint" />
            <mxPoint x="1280" y="410" as="targetPoint" />
          </mxGeometry>
        </mxCell>
        <mxCell id="gfvuBEWHtsXMwhggWegf-22" style="edgeStyle=orthogonalEdgeStyle;rounded=0;jumpSize=15;orthogonalLoop=1;jettySize=auto;html=1;" edge="1" parent="WIyWlLk6GJQsqaUBKTNV-1" source="gfvuBEWHtsXMwhggWegf-20" target="gfvuBEWHtsXMwhggWegf-21">
          <mxGeometry relative="1" as="geometry" />
        </mxCell>
        <mxCell id="gfvuBEWHtsXMwhggWegf-20" value="server" style="rounded=1;whiteSpace=wrap;html=1;" vertex="1" parent="WIyWlLk6GJQsqaUBKTNV-1">
          <mxGeometry x="210" y="80" width="120" height="40" as="geometry" />
        </mxCell>
        <mxCell id="gfvuBEWHtsXMwhggWegf-25" style="edgeStyle=orthogonalEdgeStyle;rounded=0;jumpSize=15;orthogonalLoop=1;jettySize=auto;html=1;" edge="1" parent="WIyWlLk6GJQsqaUBKTNV-1" source="gfvuBEWHtsXMwhggWegf-21" target="gfvuBEWHtsXMwhggWegf-23">
          <mxGeometry relative="1" as="geometry" />
        </mxCell>
        <mxCell id="gfvuBEWHtsXMwhggWegf-21" value="serverPluginHmr" style="rounded=1;whiteSpace=wrap;html=1;" vertex="1" parent="WIyWlLk6GJQsqaUBKTNV-1">
          <mxGeometry x="210" y="180" width="120" height="60" as="geometry" />
        </mxCell>
        <mxCell id="gfvuBEWHtsXMwhggWegf-26" style="edgeStyle=orthogonalEdgeStyle;rounded=0;jumpSize=15;orthogonalLoop=1;jettySize=auto;html=1;exitX=0.5;exitY=1;exitDx=0;exitDy=0;entryX=0.667;entryY=0.167;entryDx=0;entryDy=0;entryPerimeter=0;" edge="1" parent="WIyWlLk6GJQsqaUBKTNV-1" source="gfvuBEWHtsXMwhggWegf-23">
          <mxGeometry relative="1" as="geometry">
            <mxPoint x="270" y="520" as="targetPoint" />
          </mxGeometry>
        </mxCell>
        <mxCell id="gfvuBEWHtsXMwhggWegf-27" value="文件改变" style="edgeLabel;html=1;align=center;verticalAlign=middle;resizable=0;points=[];" vertex="1" connectable="0" parent="gfvuBEWHtsXMwhggWegf-26">
          <mxGeometry x="-0.36" y="1" relative="1" as="geometry">
            <mxPoint as="offset" />
          </mxGeometry>
        </mxCell>
        <mxCell id="gfvuBEWHtsXMwhggWegf-23" value="watch file" style="rhombus;whiteSpace=wrap;html=1;" vertex="1" parent="WIyWlLk6GJQsqaUBKTNV-1">
          <mxGeometry x="240" y="290" width="80" height="80" as="geometry" />
        </mxCell>
        <mxCell id="gfvuBEWHtsXMwhggWegf-33" style="edgeStyle=orthogonalEdgeStyle;rounded=0;jumpSize=15;orthogonalLoop=1;jettySize=auto;html=1;" edge="1" parent="WIyWlLk6GJQsqaUBKTNV-1" source="gfvuBEWHtsXMwhggWegf-30">
          <mxGeometry relative="1" as="geometry">
            <mxPoint x="120" y="610" as="targetPoint" />
          </mxGeometry>
        </mxCell>
        <mxCell id="gfvuBEWHtsXMwhggWegf-34" value="否" style="edgeLabel;html=1;align=center;verticalAlign=middle;resizable=0;points=[];" vertex="1" connectable="0" parent="gfvuBEWHtsXMwhggWegf-33">
          <mxGeometry x="-0.1529" y="1" relative="1" as="geometry">
            <mxPoint as="offset" />
          </mxGeometry>
        </mxCell>
        <mxCell id="gfvuBEWHtsXMwhggWegf-44" style="edgeStyle=orthogonalEdgeStyle;rounded=0;jumpSize=15;orthogonalLoop=1;jettySize=auto;html=1;entryX=0.573;entryY=-0.017;entryDx=0;entryDy=0;entryPerimeter=0;" edge="1" parent="WIyWlLk6GJQsqaUBKTNV-1" source="gfvuBEWHtsXMwhggWegf-30" target="gfvuBEWHtsXMwhggWegf-36">
          <mxGeometry relative="1" as="geometry" />
        </mxCell>
        <mxCell id="gfvuBEWHtsXMwhggWegf-46" value="是" style="edgeLabel;html=1;align=center;verticalAlign=middle;resizable=0;points=[];" vertex="1" connectable="0" parent="gfvuBEWHtsXMwhggWegf-44">
          <mxGeometry x="-0.3262" relative="1" as="geometry">
            <mxPoint as="offset" />
          </mxGeometry>
        </mxCell>
        <mxCell id="gfvuBEWHtsXMwhggWegf-30" value="vue 文件" style="rhombus;whiteSpace=wrap;html=1;" vertex="1" parent="WIyWlLk6GJQsqaUBKTNV-1">
          <mxGeometry x="230" y="510" width="80" height="80" as="geometry" />
        </mxCell>
        <mxCell id="gfvuBEWHtsXMwhggWegf-38" style="edgeStyle=orthogonalEdgeStyle;rounded=0;jumpSize=15;orthogonalLoop=1;jettySize=auto;html=1;entryX=0.5;entryY=0;entryDx=0;entryDy=0;" edge="1" parent="WIyWlLk6GJQsqaUBKTNV-1" source="gfvuBEWHtsXMwhggWegf-32" target="gfvuBEWHtsXMwhggWegf-37">
          <mxGeometry relative="1" as="geometry" />
        </mxCell>
        <mxCell id="gfvuBEWHtsXMwhggWegf-32" value="&lt;h4 style=&quot;line-height: 1.5 ; margin-top: 35px ; margin-bottom: 10px ; padding-bottom: 5px ; font-size: 16px ; color: rgb(51 , 51 , 51) ; font-family: , , &amp;#34;segoe ui&amp;#34; , &amp;#34;roboto&amp;#34; , &amp;#34;ubuntu&amp;#34; , &amp;#34;cantarell&amp;#34; , &amp;#34;noto sans&amp;#34; , sans-serif , , &amp;#34;helvetica neue&amp;#34; , &amp;#34;pingfang sc&amp;#34; , &amp;#34;hiragino sans gb&amp;#34; , &amp;#34;microsoft yahei&amp;#34; , &amp;#34;arial&amp;#34; ; background-color: rgb(255 , 255 , 255)&quot;&gt;&lt;span style=&quot;font-weight: normal&quot;&gt;handleJSReload&lt;/span&gt;&lt;/h4&gt;" style="rounded=1;whiteSpace=wrap;html=1;" vertex="1" parent="WIyWlLk6GJQsqaUBKTNV-1">
          <mxGeometry x="70" y="610" width="150" height="50" as="geometry" />
        </mxCell>
        <mxCell id="gfvuBEWHtsXMwhggWegf-88" style="edgeStyle=orthogonalEdgeStyle;rounded=0;jumpSize=15;orthogonalLoop=1;jettySize=auto;html=1;" edge="1" parent="WIyWlLk6GJQsqaUBKTNV-1" source="gfvuBEWHtsXMwhggWegf-36" target="gfvuBEWHtsXMwhggWegf-50">
          <mxGeometry relative="1" as="geometry" />
        </mxCell>
        <mxCell id="gfvuBEWHtsXMwhggWegf-36" value="&lt;h4 style=&quot;line-height: 1.5 ; margin-top: 35px ; margin-bottom: 10px ; padding-bottom: 5px ; font-size: 16px ; color: rgb(51 , 51 , 51) ; font-family: , , &amp;#34;segoe ui&amp;#34; , &amp;#34;roboto&amp;#34; , &amp;#34;ubuntu&amp;#34; , &amp;#34;cantarell&amp;#34; , &amp;#34;noto sans&amp;#34; , sans-serif , , &amp;#34;helvetica neue&amp;#34; , &amp;#34;pingfang sc&amp;#34; , &amp;#34;hiragino sans gb&amp;#34; , &amp;#34;microsoft yahei&amp;#34; , &amp;#34;arial&amp;#34; ; background-color: rgb(255 , 255 , 255)&quot;&gt;&lt;span style=&quot;font-weight: normal&quot;&gt;handleVueReload&lt;/span&gt;&lt;/h4&gt;" style="rounded=1;whiteSpace=wrap;html=1;" vertex="1" parent="WIyWlLk6GJQsqaUBKTNV-1">
          <mxGeometry x="355" y="610" width="150" height="60" as="geometry" />
        </mxCell>
        <mxCell id="gfvuBEWHtsXMwhggWegf-41" value="是" style="edgeStyle=orthogonalEdgeStyle;rounded=0;jumpSize=15;orthogonalLoop=1;jettySize=auto;html=1;exitX=0.5;exitY=1;exitDx=0;exitDy=0;entryX=0.5;entryY=0;entryDx=0;entryDy=0;" edge="1" parent="WIyWlLk6GJQsqaUBKTNV-1" source="gfvuBEWHtsXMwhggWegf-37" target="gfvuBEWHtsXMwhggWegf-39">
          <mxGeometry relative="1" as="geometry" />
        </mxCell>
        <mxCell id="gfvuBEWHtsXMwhggWegf-42" style="edgeStyle=orthogonalEdgeStyle;rounded=0;jumpSize=15;orthogonalLoop=1;jettySize=auto;html=1;entryX=0.5;entryY=0;entryDx=0;entryDy=0;" edge="1" parent="WIyWlLk6GJQsqaUBKTNV-1" source="gfvuBEWHtsXMwhggWegf-37" target="gfvuBEWHtsXMwhggWegf-40">
          <mxGeometry relative="1" as="geometry">
            <mxPoint x="320" y="760" as="targetPoint" />
          </mxGeometry>
        </mxCell>
        <mxCell id="gfvuBEWHtsXMwhggWegf-43" value="否" style="edgeLabel;html=1;align=center;verticalAlign=middle;resizable=0;points=[];" vertex="1" connectable="0" parent="gfvuBEWHtsXMwhggWegf-42">
          <mxGeometry x="-0.4696" y="1" relative="1" as="geometry">
            <mxPoint as="offset" />
          </mxGeometry>
        </mxCell>
        <mxCell id="gfvuBEWHtsXMwhggWegf-37" value="是否有其它模块引用" style="rhombus;whiteSpace=wrap;html=1;" vertex="1" parent="WIyWlLk6GJQsqaUBKTNV-1">
          <mxGeometry x="90" y="710" width="80" height="80" as="geometry" />
        </mxCell>
        <mxCell id="gfvuBEWHtsXMwhggWegf-39" value="热更新" style="rounded=1;whiteSpace=wrap;html=1;" vertex="1" parent="WIyWlLk6GJQsqaUBKTNV-1">
          <mxGeometry x="70" y="850" width="120" height="60" as="geometry" />
        </mxCell>
        <mxCell id="gfvuBEWHtsXMwhggWegf-40" value="full reload" style="rounded=1;whiteSpace=wrap;html=1;" vertex="1" parent="WIyWlLk6GJQsqaUBKTNV-1">
          <mxGeometry x="240" y="850" width="120" height="60" as="geometry" />
        </mxCell>
        <mxCell id="gfvuBEWHtsXMwhggWegf-52" style="edgeStyle=orthogonalEdgeStyle;rounded=0;jumpSize=15;orthogonalLoop=1;jettySize=auto;html=1;" edge="1" parent="WIyWlLk6GJQsqaUBKTNV-1" source="gfvuBEWHtsXMwhggWegf-50" target="gfvuBEWHtsXMwhggWegf-51">
          <mxGeometry relative="1" as="geometry" />
        </mxCell>
        <mxCell id="gfvuBEWHtsXMwhggWegf-50" value="@vue/compiler-sfc vue文件编译" style="rounded=1;whiteSpace=wrap;html=1;" vertex="1" parent="WIyWlLk6GJQsqaUBKTNV-1">
          <mxGeometry x="440" y="730" width="120" height="60" as="geometry" />
        </mxCell>
        <mxCell id="gfvuBEWHtsXMwhggWegf-54" style="edgeStyle=orthogonalEdgeStyle;rounded=0;jumpSize=15;orthogonalLoop=1;jettySize=auto;html=1;" edge="1" parent="WIyWlLk6GJQsqaUBKTNV-1" source="gfvuBEWHtsXMwhggWegf-51" target="gfvuBEWHtsXMwhggWegf-53">
          <mxGeometry relative="1" as="geometry" />
        </mxCell>
        <mxCell id="gfvuBEWHtsXMwhggWegf-51" value="其中script 如果为ts,使用esbuild 处理" style="rounded=1;whiteSpace=wrap;html=1;" vertex="1" parent="WIyWlLk6GJQsqaUBKTNV-1">
          <mxGeometry x="450" y="840" width="120" height="50" as="geometry" />
        </mxCell>
        <mxCell id="gfvuBEWHtsXMwhggWegf-56" style="edgeStyle=orthogonalEdgeStyle;rounded=0;jumpSize=15;orthogonalLoop=1;jettySize=auto;html=1;entryX=0.5;entryY=0;entryDx=0;entryDy=0;" edge="1" parent="WIyWlLk6GJQsqaUBKTNV-1" source="gfvuBEWHtsXMwhggWegf-53" target="gfvuBEWHtsXMwhggWegf-55">
          <mxGeometry relative="1" as="geometry" />
        </mxCell>
        <mxCell id="gfvuBEWHtsXMwhggWegf-53" value="存在styles，对style进行处理，处理为js import形式" style="rounded=1;whiteSpace=wrap;html=1;" vertex="1" parent="WIyWlLk6GJQsqaUBKTNV-1">
          <mxGeometry x="450" y="950" width="120" height="60" as="geometry" />
        </mxCell>
        <mxCell id="gfvuBEWHtsXMwhggWegf-58" style="edgeStyle=orthogonalEdgeStyle;rounded=0;jumpSize=15;orthogonalLoop=1;jettySize=auto;html=1;entryX=0.5;entryY=0;entryDx=0;entryDy=0;" edge="1" parent="WIyWlLk6GJQsqaUBKTNV-1" source="gfvuBEWHtsXMwhggWegf-55" target="gfvuBEWHtsXMwhggWegf-57">
          <mxGeometry relative="1" as="geometry" />
        </mxCell>
        <mxCell id="gfvuBEWHtsXMwhggWegf-55" value="自定义模块的处理" style="rounded=1;whiteSpace=wrap;html=1;" vertex="1" parent="WIyWlLk6GJQsqaUBKTNV-1">
          <mxGeometry x="450" y="1060" width="120" height="60" as="geometry" />
        </mxCell>
        <mxCell id="gfvuBEWHtsXMwhggWegf-61" style="edgeStyle=orthogonalEdgeStyle;rounded=0;jumpSize=15;orthogonalLoop=1;jettySize=auto;html=1;entryX=0.5;entryY=0;entryDx=0;entryDy=0;" edge="1" parent="WIyWlLk6GJQsqaUBKTNV-1" source="gfvuBEWHtsXMwhggWegf-57" target="gfvuBEWHtsXMwhggWegf-60">
          <mxGeometry relative="1" as="geometry" />
        </mxCell>
        <mxCell id="gfvuBEWHtsXMwhggWegf-69" style="edgeStyle=orthogonalEdgeStyle;rounded=0;jumpSize=15;orthogonalLoop=1;jettySize=auto;html=1;entryX=0.5;entryY=0;entryDx=0;entryDy=0;" edge="1" parent="WIyWlLk6GJQsqaUBKTNV-1" source="gfvuBEWHtsXMwhggWegf-57" target="gfvuBEWHtsXMwhggWegf-65">
          <mxGeometry relative="1" as="geometry" />
        </mxCell>
        <mxCell id="gfvuBEWHtsXMwhggWegf-74" style="edgeStyle=orthogonalEdgeStyle;rounded=0;jumpSize=15;orthogonalLoop=1;jettySize=auto;html=1;entryX=0.5;entryY=0;entryDx=0;entryDy=0;" edge="1" parent="WIyWlLk6GJQsqaUBKTNV-1" source="gfvuBEWHtsXMwhggWegf-57" target="gfvuBEWHtsXMwhggWegf-72">
          <mxGeometry relative="1" as="geometry" />
        </mxCell>
        <mxCell id="gfvuBEWHtsXMwhggWegf-57" value="template 处理" style="rounded=1;whiteSpace=wrap;html=1;" vertex="1" parent="WIyWlLk6GJQsqaUBKTNV-1">
          <mxGeometry x="450" y="1169" width="120" height="51" as="geometry" />
        </mxCell>
        <mxCell id="gfvuBEWHtsXMwhggWegf-63" style="edgeStyle=orthogonalEdgeStyle;rounded=0;jumpSize=15;orthogonalLoop=1;jettySize=auto;html=1;entryX=0.459;entryY=-0.05;entryDx=0;entryDy=0;entryPerimeter=0;" edge="1" parent="WIyWlLk6GJQsqaUBKTNV-1" source="gfvuBEWHtsXMwhggWegf-60" target="gfvuBEWHtsXMwhggWegf-71">
          <mxGeometry relative="1" as="geometry">
            <mxPoint x="425" y="1490" as="targetPoint" />
          </mxGeometry>
        </mxCell>
        <mxCell id="gfvuBEWHtsXMwhggWegf-64" value="send vue-reload" style="edgeLabel;html=1;align=center;verticalAlign=middle;resizable=0;points=[];" vertex="1" connectable="0" parent="gfvuBEWHtsXMwhggWegf-63">
          <mxGeometry x="-0.0378" y="4" relative="1" as="geometry">
            <mxPoint as="offset" />
          </mxGeometry>
        </mxCell>
        <mxCell id="gfvuBEWHtsXMwhggWegf-60" value="script 是否变化" style="rhombus;whiteSpace=wrap;html=1;" vertex="1" parent="WIyWlLk6GJQsqaUBKTNV-1">
          <mxGeometry x="645" y="1290" width="80" height="80" as="geometry" />
        </mxCell>
        <mxCell id="gfvuBEWHtsXMwhggWegf-66" style="edgeStyle=orthogonalEdgeStyle;rounded=0;jumpSize=15;orthogonalLoop=1;jettySize=auto;html=1;entryX=0.559;entryY=-0.1;entryDx=0;entryDy=0;entryPerimeter=0;exitX=0.5;exitY=1;exitDx=0;exitDy=0;" edge="1" parent="WIyWlLk6GJQsqaUBKTNV-1" source="gfvuBEWHtsXMwhggWegf-65" target="gfvuBEWHtsXMwhggWegf-70">
          <mxGeometry relative="1" as="geometry">
            <mxPoint x="250" y="1360" as="sourcePoint" />
            <mxPoint x="290" y="1430" as="targetPoint" />
            <Array as="points">
              <mxPoint x="250" y="1360" />
              <mxPoint x="170" y="1360" />
              <mxPoint x="170" y="1405" />
              <mxPoint x="255" y="1405" />
            </Array>
          </mxGeometry>
        </mxCell>
        <mxCell id="gfvuBEWHtsXMwhggWegf-68" value="send vue-rerender" style="edgeLabel;html=1;align=center;verticalAlign=middle;resizable=0;points=[];" vertex="1" connectable="0" parent="gfvuBEWHtsXMwhggWegf-66">
          <mxGeometry x="-0.152" y="1" relative="1" as="geometry">
            <mxPoint as="offset" />
          </mxGeometry>
        </mxCell>
        <mxCell id="gfvuBEWHtsXMwhggWegf-65" value="template 是否变化" style="rhombus;whiteSpace=wrap;html=1;" vertex="1" parent="WIyWlLk6GJQsqaUBKTNV-1">
          <mxGeometry x="210" y="1270" width="80" height="80" as="geometry" />
        </mxCell>
        <mxCell id="gfvuBEWHtsXMwhggWegf-70" value="vue rerender" style="html=1;shape=mxgraph.infographic.ribbonSimple;notch1=20;notch2=0;align=center;verticalAlign=middle;fontSize=14;fontStyle=0;fillColor=#FFFFFF;flipH=0;spacingRight=0;spacingLeft=14;" vertex="1" parent="WIyWlLk6GJQsqaUBKTNV-1">
          <mxGeometry x="140" y="1500" width="170" height="40" as="geometry" />
        </mxCell>
        <mxCell id="gfvuBEWHtsXMwhggWegf-71" value="vue reload" style="html=1;shape=mxgraph.infographic.ribbonSimple;notch1=20;notch2=0;align=center;verticalAlign=middle;fontSize=14;fontStyle=0;fillColor=#FFFFFF;flipH=0;spacingRight=0;spacingLeft=14;" vertex="1" parent="WIyWlLk6GJQsqaUBKTNV-1">
          <mxGeometry x="605" y="1470" width="170" height="40" as="geometry" />
        </mxCell>
        <mxCell id="gfvuBEWHtsXMwhggWegf-73" style="edgeStyle=orthogonalEdgeStyle;rounded=0;jumpSize=15;orthogonalLoop=1;jettySize=auto;html=1;entryX=0.5;entryY=0;entryDx=0;entryDy=0;" edge="1" parent="WIyWlLk6GJQsqaUBKTNV-1" target="gfvuBEWHtsXMwhggWegf-80">
          <mxGeometry relative="1" as="geometry">
            <mxPoint x="500" y="1361" as="sourcePoint" />
            <mxPoint x="498" y="1431" as="targetPoint" />
          </mxGeometry>
        </mxCell>
        <mxCell id="gfvuBEWHtsXMwhggWegf-72" value="style 是否变化" style="rhombus;whiteSpace=wrap;html=1;" vertex="1" parent="WIyWlLk6GJQsqaUBKTNV-1">
          <mxGeometry x="460" y="1280" width="80" height="80" as="geometry" />
        </mxCell>
        <mxCell id="gfvuBEWHtsXMwhggWegf-75" value="serverPluginVue 中监听文件变化" style="shape=note2;boundedLbl=1;whiteSpace=wrap;html=1;size=25;verticalAlign=top;align=center;" vertex="1" parent="WIyWlLk6GJQsqaUBKTNV-1">
          <mxGeometry x="490" y="460" width="120" height="60" as="geometry" />
        </mxCell>
        <mxCell id="gfvuBEWHtsXMwhggWegf-77" value="style remove&amp;nbsp;" style="html=1;shape=mxgraph.infographic.ribbonSimple;notch1=20;notch2=0;align=center;verticalAlign=middle;fontSize=14;fontStyle=0;fillColor=#FFFFFF;flipH=0;spacingRight=0;spacingLeft=14;" vertex="1" parent="WIyWlLk6GJQsqaUBKTNV-1">
          <mxGeometry x="280" y="1680" width="170" height="40" as="geometry" />
        </mxCell>
        <mxCell id="gfvuBEWHtsXMwhggWegf-78" value="style update" style="html=1;shape=mxgraph.infographic.ribbonSimple;notch1=20;notch2=0;align=center;verticalAlign=middle;fontSize=14;fontStyle=0;fillColor=#FFFFFF;flipH=0;spacingRight=0;spacingLeft=14;" vertex="1" parent="WIyWlLk6GJQsqaUBKTNV-1">
          <mxGeometry x="540" y="1680" width="170" height="40" as="geometry" />
        </mxCell>
        <mxCell id="gfvuBEWHtsXMwhggWegf-81" style="edgeStyle=orthogonalEdgeStyle;rounded=0;jumpSize=15;orthogonalLoop=1;jettySize=auto;html=1;entryX=1;entryY=0.5;entryDx=0;entryDy=0;entryPerimeter=0;" edge="1" parent="WIyWlLk6GJQsqaUBKTNV-1" source="gfvuBEWHtsXMwhggWegf-80" target="gfvuBEWHtsXMwhggWegf-70">
          <mxGeometry relative="1" as="geometry" />
        </mxCell>
        <mxCell id="gfvuBEWHtsXMwhggWegf-83" value="是" style="edgeLabel;html=1;align=center;verticalAlign=middle;resizable=0;points=[];" vertex="1" connectable="0" parent="gfvuBEWHtsXMwhggWegf-81">
          <mxGeometry x="-0.1368" y="2" relative="1" as="geometry">
            <mxPoint as="offset" />
          </mxGeometry>
        </mxCell>
        <mxCell id="gfvuBEWHtsXMwhggWegf-85" style="edgeStyle=orthogonalEdgeStyle;rounded=0;jumpSize=15;orthogonalLoop=1;jettySize=auto;html=1;" edge="1" parent="WIyWlLk6GJQsqaUBKTNV-1" source="gfvuBEWHtsXMwhggWegf-80" target="gfvuBEWHtsXMwhggWegf-84">
          <mxGeometry relative="1" as="geometry" />
        </mxCell>
        <mxCell id="gfvuBEWHtsXMwhggWegf-80" value="&lt;span style=&quot;font-size: 11px ; background-color: rgb(255 , 255 , 255)&quot;&gt;css module\scope\variable injection&lt;/span&gt;" style="rhombus;whiteSpace=wrap;html=1;" vertex="1" parent="WIyWlLk6GJQsqaUBKTNV-1">
          <mxGeometry x="460" y="1440" width="80" height="80" as="geometry" />
        </mxCell>
        <mxCell id="gfvuBEWHtsXMwhggWegf-86" style="edgeStyle=orthogonalEdgeStyle;rounded=0;jumpSize=15;orthogonalLoop=1;jettySize=auto;html=1;entryX=0.465;entryY=-0.075;entryDx=0;entryDy=0;entryPerimeter=0;" edge="1" parent="WIyWlLk6GJQsqaUBKTNV-1" source="gfvuBEWHtsXMwhggWegf-84" target="gfvuBEWHtsXMwhggWegf-77">
          <mxGeometry relative="1" as="geometry" />
        </mxCell>
        <mxCell id="gfvuBEWHtsXMwhggWegf-87" style="edgeStyle=orthogonalEdgeStyle;rounded=0;jumpSize=15;orthogonalLoop=1;jettySize=auto;html=1;entryX=0;entryY=0;entryDx=85;entryDy=0;entryPerimeter=0;" edge="1" parent="WIyWlLk6GJQsqaUBKTNV-1" source="gfvuBEWHtsXMwhggWegf-84" target="gfvuBEWHtsXMwhggWegf-78">
          <mxGeometry relative="1" as="geometry" />
        </mxCell>
        <mxCell id="gfvuBEWHtsXMwhggWegf-84" value="perstyles、nextStyles" style="rounded=1;whiteSpace=wrap;html=1;" vertex="1" parent="WIyWlLk6GJQsqaUBKTNV-1">
          <mxGeometry x="435" y="1570" width="120" height="60" as="geometry" />
        </mxCell>
        <mxCell id="gfvuBEWHtsXMwhggWegf-89" value="" style="endArrow=none;dashed=1;html=1;dashPattern=1 3;strokeWidth=2;entryX=0.5;entryY=1;entryDx=0;entryDy=0;entryPerimeter=0;exitX=0.84;exitY=-0.033;exitDx=0;exitDy=0;exitPerimeter=0;" edge="1" parent="WIyWlLk6GJQsqaUBKTNV-1" source="gfvuBEWHtsXMwhggWegf-36" target="gfvuBEWHtsXMwhggWegf-75">
          <mxGeometry width="50" height="50" relative="1" as="geometry">
            <mxPoint x="510" y="600" as="sourcePoint" />
            <mxPoint x="560" y="550" as="targetPoint" />
          </mxGeometry>
        </mxCell>
        <mxCell id="gfvuBEWHtsXMwhggWegf-94" style="edgeStyle=orthogonalEdgeStyle;rounded=0;jumpSize=15;orthogonalLoop=1;jettySize=auto;html=1;entryX=0.5;entryY=0;entryDx=0;entryDy=0;" edge="1" parent="WIyWlLk6GJQsqaUBKTNV-1" source="gfvuBEWHtsXMwhggWegf-90" target="gfvuBEWHtsXMwhggWegf-93">
          <mxGeometry relative="1" as="geometry" />
        </mxCell>
        <mxCell id="gfvuBEWHtsXMwhggWegf-90" value="vue reload&amp;nbsp;" style="html=1;shape=mxgraph.infographic.ribbonSimple;notch1=20;notch2=0;align=center;verticalAlign=middle;fontSize=14;fontStyle=0;fillColor=#FFFFFF;flipH=0;spacingRight=0;spacingLeft=14;" vertex="1" parent="WIyWlLk6GJQsqaUBKTNV-1">
          <mxGeometry x="830" y="470" width="170" height="40" as="geometry" />
        </mxCell>
        <mxCell id="gfvuBEWHtsXMwhggWegf-105" style="edgeStyle=orthogonalEdgeStyle;rounded=0;jumpSize=15;orthogonalLoop=1;jettySize=auto;html=1;" edge="1" parent="WIyWlLk6GJQsqaUBKTNV-1" source="gfvuBEWHtsXMwhggWegf-91" target="gfvuBEWHtsXMwhggWegf-102">
          <mxGeometry relative="1" as="geometry" />
        </mxCell>
        <mxCell id="gfvuBEWHtsXMwhggWegf-91" value="style update" style="html=1;shape=mxgraph.infographic.ribbonSimple;notch1=20;notch2=0;align=center;verticalAlign=middle;fontSize=14;fontStyle=0;fillColor=#FFFFFF;flipH=0;spacingRight=0;spacingLeft=14;" vertex="1" parent="WIyWlLk6GJQsqaUBKTNV-1">
          <mxGeometry x="1250" y="470" width="170" height="40" as="geometry" />
        </mxCell>
        <mxCell id="gfvuBEWHtsXMwhggWegf-106" style="edgeStyle=orthogonalEdgeStyle;rounded=0;jumpSize=15;orthogonalLoop=1;jettySize=auto;html=1;entryX=0.5;entryY=0;entryDx=0;entryDy=0;" edge="1" parent="WIyWlLk6GJQsqaUBKTNV-1" source="gfvuBEWHtsXMwhggWegf-92" target="gfvuBEWHtsXMwhggWegf-103">
          <mxGeometry relative="1" as="geometry" />
        </mxCell>
        <mxCell id="gfvuBEWHtsXMwhggWegf-92" value="style remove&amp;nbsp;" style="html=1;shape=mxgraph.infographic.ribbonSimple;notch1=20;notch2=0;align=center;verticalAlign=middle;fontSize=14;fontStyle=0;fillColor=#FFFFFF;flipH=0;spacingRight=0;spacingLeft=14;" vertex="1" parent="WIyWlLk6GJQsqaUBKTNV-1">
          <mxGeometry x="1500" y="460" width="170" height="40" as="geometry" />
        </mxCell>
        <mxCell id="gfvuBEWHtsXMwhggWegf-93" value="import(`${path}?t=${timestamp}`)" style="rounded=1;whiteSpace=wrap;html=1;" vertex="1" parent="WIyWlLk6GJQsqaUBKTNV-1">
          <mxGeometry x="775" y="610" width="180" height="60" as="geometry" />
        </mxCell>
        <mxCell id="gfvuBEWHtsXMwhggWegf-104" style="edgeStyle=orthogonalEdgeStyle;rounded=0;jumpSize=15;orthogonalLoop=1;jettySize=auto;html=1;entryX=0.561;entryY=-0.028;entryDx=0;entryDy=0;entryPerimeter=0;" edge="1" parent="WIyWlLk6GJQsqaUBKTNV-1" source="gfvuBEWHtsXMwhggWegf-97" target="gfvuBEWHtsXMwhggWegf-101">
          <mxGeometry relative="1" as="geometry" />
        </mxCell>
        <mxCell id="gfvuBEWHtsXMwhggWegf-97" value="vue-rerender" style="html=1;shape=mxgraph.infographic.ribbonSimple;notch1=20;notch2=0;align=center;verticalAlign=middle;fontSize=14;fontStyle=0;fillColor=#FFFFFF;flipH=0;spacingRight=0;spacingLeft=14;" vertex="1" parent="WIyWlLk6GJQsqaUBKTNV-1">
          <mxGeometry x="1045" y="470" width="170" height="40" as="geometry" />
        </mxCell>
        <mxCell id="gfvuBEWHtsXMwhggWegf-101" value="const templatePath = `${path}?type=template` import(`${templatePath}&amp;amp;t=${timestamp}`)" style="rounded=1;whiteSpace=wrap;html=1;" vertex="1" parent="WIyWlLk6GJQsqaUBKTNV-1">
          <mxGeometry x="995" y="610" width="240" height="60" as="geometry" />
        </mxCell>
        <mxCell id="gfvuBEWHtsXMwhggWegf-102" value="const importQuery = path.includes(&#39;?&#39;) ? &#39;&amp;amp;import&#39; : &#39;?import&#39; await import(`${path}${importQuery}&amp;amp;t=${timestamp}`)" style="rounded=1;whiteSpace=wrap;html=1;" vertex="1" parent="WIyWlLk6GJQsqaUBKTNV-1">
          <mxGeometry x="1270" y="610" width="330" height="60" as="geometry" />
        </mxCell>
        <mxCell id="gfvuBEWHtsXMwhggWegf-103" value="removeStyle" style="rounded=1;whiteSpace=wrap;html=1;" vertex="1" parent="WIyWlLk6GJQsqaUBKTNV-1">
          <mxGeometry x="1640" y="617.5" width="130" height="45" as="geometry" />
        </mxCell>
        <mxCell id="gfvuBEWHtsXMwhggWegf-110" style="edgeStyle=orthogonalEdgeStyle;rounded=0;jumpSize=15;orthogonalLoop=1;jettySize=auto;html=1;" edge="1" parent="WIyWlLk6GJQsqaUBKTNV-1" source="gfvuBEWHtsXMwhggWegf-107" target="gfvuBEWHtsXMwhggWegf-109">
          <mxGeometry relative="1" as="geometry" />
        </mxCell>
        <mxCell id="gfvuBEWHtsXMwhggWegf-107" value="js update" style="html=1;shape=mxgraph.infographic.ribbonSimple;notch1=20;notch2=0;align=center;verticalAlign=middle;fontSize=14;fontStyle=0;fillColor=#FFFFFF;flipH=0;spacingRight=0;spacingLeft=14;" vertex="1" parent="WIyWlLk6GJQsqaUBKTNV-1">
          <mxGeometry x="690" y="310" width="170" height="40" as="geometry" />
        </mxCell>
        <mxCell id="gfvuBEWHtsXMwhggWegf-109" value="update module&amp;nbsp;" style="rounded=1;whiteSpace=wrap;html=1;" vertex="1" parent="WIyWlLk6GJQsqaUBKTNV-1">
          <mxGeometry x="630" y="618" width="120" height="60" as="geometry" />
        </mxCell>
      </root>
    </mxGraphModel>
  </diagram>
</mxfile>
